<?xml version="1.0" encoding="UTF-8"?>
<!DOCTYPE svg PUBLIC "-//W3C//DTD SVG 1.1//EN" "http://www.w3.org/Graphics/SVG/1.1/DTD/svg11.dtd">
<!-- Creator: CorelDRAW X7 -->
<svg xmlns="http://www.w3.org/2000/svg" xml:space="preserve" width="53.7167mm" height="7.9922mm" version="1.1" style="shape-rendering:geometricPrecision; text-rendering:geometricPrecision; image-rendering:optimizeQuality; fill-rule:evenodd; clip-rule:evenodd"
viewBox="0 0 1722 256"
 xmlns:xlink="http://www.w3.org/1999/xlink">
 <defs>
  <style type="text/css">
   <![CDATA[
    .str1 {stroke:white;stroke-width:6.40719}
    .str0 {stroke:#CA4639;stroke-width:2.44236}
    .fil7 {fill:none}
    .fil3 {fill:black}
    .fil2 {fill:#00E031}
    .fil5 {fill:#2042C9}
    .fil1 {fill:#F01702}
    .fil4 {fill:#F0B508}
    .fil6 {fill:white}
    .fil0 {fill:white;fill-rule:nonzero}
   ]]>
  </style>
 </defs>
 <g id="Camada_x0020_1">
  <metadata id="CorelCorpID_0Corel-Layer"/>
  <path class="fil0" d="M305 96c1,0 3,-1 4,-2 1,0 3,-2 4,-2 1,0 2,0 5,-1 3,0 5,0 9,0 4,-1 8,-1 10,-1 3,0 4,0 5,0 2,0 2,1 2,2 0,2 0,3 -2,4 0,4 -1,5 -2,6 -3,2 -5,2 -9,2 -5,0 -8,0 -10,1 -3,0 -4,3 -7,5 -2,3 -5,5 -6,9 -2,3 -3,7 -4,12 -1,6 -3,12 -3,19 0,5 0,11 2,18 1,5 2,11 5,16 1,6 4,11 7,15 3,2 6,5 9,5 3,1 7,1 12,0 4,-2 5,-2 8,-2 1,0 3,2 6,3 0,1 1,1 3,2 1,2 1,2 1,2 0,1 -1,1 -4,2 -1,2 -4,3 -6,4 -3,1 -6,3 -7,3 -1,1 -2,1 -4,1 -1,1 -2,1 -3,1 0,0 -3,0 -4,-1 -4,0 -8,0 -11,-1 -3,-3 -6,-4 -9,-8 -5,-4 -9,-9 -11,-17 -4,-7 -6,-15 -8,-24 -1,-6 -1,-14 -1,-20 0,-8 1,-15 3,-21 1,-6 3,-13 6,-18 2,-5 6,-10 10,-14l0 0z"/>
  <path id="_1" class="fil0" d="M362 118c2,-8 5,-13 7,-17 3,-5 7,-7 12,-10 2,0 5,-1 7,-1 4,0 7,1 9,1 3,1 7,1 9,3 3,1 5,3 7,5 2,2 4,5 6,7 1,4 4,8 5,13 0,3 2,4 2,5 0,2 0,4 0,7 0,1 0,5 0,9 0,2 0,7 0,14 0,6 0,10 0,14 0,4 0,7 0,10 0,3 0,5 0,6 0,3 -2,4 -2,6 -1,7 -4,12 -6,17 -4,4 -8,8 -12,11 -2,0 -3,1 -6,1 -3,0 -5,0 -8,0 -2,1 -5,1 -7,0 -3,0 -4,0 -6,0 -3,-3 -7,-6 -10,-10 -2,-4 -5,-9 -7,-16 0,-2 0,-3 -2,-5 0,-1 0,-4 0,-6 0,-3 0,-5 0,-10 0,-4 0,-11 0,-17 0,-6 0,-12 0,-17 0,-4 0,-7 0,-10 0,-2 0,-4 0,-6 2,-2 2,-3 2,-4l0 0zm46 0c-2,-3 -3,-5 -5,-8 -3,-2 -6,-4 -8,-5 -3,0 -5,0 -8,0 -1,0 -4,1 -5,3 -1,1 -3,3 -4,6 -1,3 -2,6 -2,10 -2,4 -2,9 -2,14 0,7 0,13 0,21 0,6 0,11 0,15 0,4 2,8 2,10 0,3 1,6 1,8 1,1 1,4 2,5 2,3 4,5 6,7 2,1 5,1 7,1 4,0 8,-1 11,-3 2,-2 3,-5 6,-9 0,-1 0,-2 0,-3 1,-2 1,-4 1,-6 0,-2 0,-5 0,-7 1,-3 1,-7 1,-12 0,-13 0,-22 0,-29 0,-9 -1,-14 -3,-18l0 0z"/>
  <path id="_2" class="fil0" d="M497 133c0,-7 0,-15 0,-20 0,-5 0,-9 0,-13 0,-4 0,-6 0,-8 0,-1 2,-2 2,-2 0,-2 0,-2 1,-2 1,0 4,0 5,0 3,0 4,0 5,0 1,0 1,0 1,2 0,0 2,4 2,7 1,5 1,11 1,18 0,3 0,8 0,12 0,5 0,10 0,15 0,5 0,12 0,17 0,6 0,11 1,16 0,26 0,39 0,39 -1,1 -2,2 -4,2 -1,2 -2,2 -3,3 -2,0 -3,0 -4,0 -2,0 -3,0 -4,0 0,-1 -1,-1 -3,-4 -1,-2 -2,-5 -4,-8 -1,-2 -3,-6 -5,-10 -1,-5 -4,-9 -5,-14 -1,-2 -2,-6 -4,-10 -2,-4 -3,-7 -5,-8 -1,-2 -4,-6 -5,-9 -2,-4 -4,-6 -6,-10 -3,-3 -4,-5 -5,-8 -3,-2 -3,-4 -3,-4 -1,0 -3,0 -3,3 0,1 0,4 2,10 0,8 0,16 0,23 1,8 1,14 1,20 0,6 0,10 0,14 0,3 0,5 0,6 -1,0 -3,0 -3,0 -1,1 -2,1 -5,1 -1,0 -2,0 -3,-1 -2,0 -2,0 -3,0 0,-1 -1,-8 -1,-19 -2,-12 -2,-25 -2,-37 0,-14 0,-27 2,-37 0,-12 1,-18 1,-20 1,0 1,-1 3,-1 1,0 2,-1 3,-1 3,0 5,0 8,1 1,1 3,3 3,6 1,3 1,6 2,8 1,3 1,5 4,8 1,2 3,5 5,9 1,2 5,7 8,11 1,3 4,7 5,9 3,3 4,7 5,9 3,3 4,5 5,9 1,3 3,4 3,7 1,1 1,2 2,3 0,0 0,-1 0,-3 2,-3 2,-6 2,-9 0,-4 0,-8 -2,-13 0,-5 0,-12 0,-17l0 0z"/>
  <path id="_3" class="fil0" d="M527 101c0,-1 0,-4 1,-6 1,-3 3,-4 4,-5 1,0 2,-2 2,-2 2,0 3,0 4,0 2,0 4,0 7,0 2,0 6,0 10,0 6,0 11,0 15,0 3,0 4,0 4,2 1,0 1,0 3,1 0,1 0,3 0,5 0,1 0,3 0,4 0,1 0,1 -2,1 -1,1 -2,1 -5,1 -2,0 -5,0 -10,0 -6,0 -10,0 -13,0 -2,2 -4,2 -4,3 0,0 0,1 -1,4 0,1 0,5 0,9 0,2 0,5 1,6 0,2 0,3 0,3 2,1 3,1 4,1 2,0 3,0 5,0 4,0 7,0 8,0 3,1 4,1 4,1 1,0 1,2 1,3 0,1 0,2 0,4 0,1 0,2 0,4 0,1 0,2 -1,2 0,0 -1,0 -4,1 -3,0 -4,0 -8,0 -2,0 -3,0 -5,2 -1,0 -2,1 -4,2 0,3 0,5 0,9 -1,4 -1,9 -1,17 0,4 0,8 0,11 0,4 0,7 0,9 0,4 1,6 1,8 0,1 0,3 0,3 0,0 2,0 6,0 2,0 6,0 12,0 4,0 8,1 11,1 2,0 3,0 5,0 1,0 1,1 1,2 1,0 1,2 1,3 0,3 0,5 -1,6 0,2 0,2 -1,3 -8,0 -14,0 -20,0 -5,1 -7,1 -10,1 -2,0 -5,0 -6,0 -1,0 -3,0 -4,0 -1,-1 -1,-1 -3,-1 -1,-1 -2,-1 -3,-3 -2,-1 -2,-1 -2,-2 0,0 -1,-5 -1,-15 0,-9 -1,-24 -1,-40 0,-8 0,-14 0,-21 0,-7 0,-12 0,-18 0,-5 0,-10 0,-12 0,-4 0,-6 0,-7l0 0z"/>
  <path id="_4" class="fil0" d="M628 123c1,-4 3,-9 4,-13 2,-4 4,-9 6,-13 3,-5 4,-7 5,-7 2,0 4,0 8,2 4,3 5,5 3,9 0,1 0,1 -2,3 0,2 -1,4 -1,5 0,1 -1,4 -3,8 -2,2 -3,6 -5,10 -2,6 -4,10 -5,14 -2,2 -2,5 -2,8 -2,1 -2,2 0,3 0,0 1,2 1,4 1,2 2,4 4,7 1,4 4,7 5,11 1,4 2,7 4,9 1,4 2,5 4,7 0,1 1,2 1,5 1,1 2,4 2,6 3,3 4,5 4,8 2,2 2,4 2,4 0,1 -2,2 -2,3 0,0 -1,0 -4,2 -1,1 -3,2 -5,2 -1,0 -2,-1 -2,-1 -2,-1 -3,-3 -4,-6 -1,-4 -4,-9 -8,-17 0,-1 -1,-4 -2,-6 -2,-3 -3,-7 -4,-9 -3,-3 -4,-7 -5,-11 0,0 -2,0 -3,2 -1,2 -2,3 -4,6 -1,1 -2,4 -4,6 -1,3 -2,6 -2,7 -1,2 -1,4 -3,6 -1,3 -1,5 -2,8 -2,2 -2,5 -3,10 -1,0 -2,0 -4,1 -1,0 -2,0 -4,2 -1,0 -3,0 -5,0 -1,0 -1,0 -2,-2 0,-1 0,-2 0,-3 1,-3 1,-4 2,-8 2,-6 4,-13 7,-18 1,-6 4,-12 6,-15 0,-2 1,-3 3,-5 0,-2 1,-4 2,-6 2,-2 2,-3 3,-5 1,-1 1,-2 1,-4 0,0 0,-1 -1,-2 0,-1 -1,-4 -3,-5 -1,-3 -1,-5 -2,-9 -2,-3 -3,-5 -4,-7 -1,-2 -3,-5 -4,-9 -3,-2 -4,-6 -5,-9 -3,-3 -4,-6 -4,-7 -1,-2 -1,-3 0,-4 0,-1 0,-1 1,-3 2,-1 3,-1 3,-2 1,0 2,-1 4,-1 1,0 1,0 2,0 0,0 2,1 3,2 1,3 2,4 4,6 2,4 4,7 5,11 2,2 4,6 5,9 1,2 3,5 4,7 1,0 1,0 2,-1 0,-1 2,-2 3,-5l0 0z"/>
  <path id="_5" class="fil0" d="M701 92c0,-1 1,-1 3,-2 0,0 2,-2 3,-2 4,0 8,0 9,0 0,2 0,3 2,7 1,2 1,6 2,11 1,4 3,8 3,12 1,4 1,8 2,9 0,2 2,5 2,7 0,3 0,6 0,7 1,1 1,4 1,6 1,2 1,4 1,7 1,4 1,6 3,9 0,4 1,6 1,9 1,6 3,11 4,16 1,5 2,9 2,13 2,4 2,6 2,9 0,3 0,4 0,4 0,1 -2,2 -3,2 -1,2 -2,2 -4,3 -1,0 -4,0 -5,0 -1,0 -1,0 -2,0 0,-1 -2,-3 -2,-6 -1,-3 -2,-7 -2,-12 0,-1 -2,-4 -2,-6 -1,-3 -1,-5 -2,-9 0,-3 -1,-7 -1,-9 -2,-3 -2,-4 -3,-5 0,-2 0,-3 -1,-3 -2,-1 -4,-1 -8,-1 -2,0 -5,0 -6,0 -2,0 -3,1 -3,2 -1,2 -1,4 -2,7 0,4 -2,9 -3,15 -1,5 -1,9 -3,12 0,2 0,5 0,6 -1,1 -1,1 -1,3 0,0 0,0 -1,1 0,0 -1,0 -3,1 -1,0 -4,0 -5,0 -1,0 -2,0 -4,0 -2,-1 -2,-1 -2,-1 0,-1 0,-4 0,-8 1,-5 1,-10 2,-15 2,-4 2,-8 3,-12 0,-4 1,-6 2,-10 0,-2 2,-6 3,-9 0,-4 1,-6 3,-10 1,-3 2,-5 2,-9 1,-4 3,-7 3,-10 1,-4 2,-7 2,-11 2,-3 2,-6 3,-9 0,-5 1,-9 2,-12 2,-5 2,-7 3,-7l0 0zm10 54c0,-3 0,-5 0,-8 -1,-4 -1,-6 -1,-7 0,-3 0,-5 -1,-8 0,-1 0,-3 0,-3l-2 0c-1,6 -1,8 -2,11 0,3 -2,6 -2,9 -1,3 -1,5 -1,6 -1,3 -1,5 0,5 0,0 1,0 5,0 3,0 4,0 4,0 1,-1 1,-2 0,-5l0 0zm-22 -73c0,-1 0,-3 2,-3 0,0 1,-1 2,-1 3,-1 5,-1 8,-1 4,1 8,2 11,4 0,0 2,1 3,1 1,0 1,1 3,1 1,0 2,0 2,0 0,0 1,0 3,0 2,0 2,0 4,0 0,0 0,-1 0,-1 1,-1 1,-1 1,-3 0,-1 0,-1 0,-1 0,-1 0,-1 0,-1 1,0 1,0 2,0 2,0 3,0 3,0 0,1 0,1 0,4 0,1 0,2 0,4 0,1 -1,2 -3,3 -1,2 -2,3 -5,3 -1,1 -1,1 -2,1 -2,0 -4,0 -7,-1 -1,0 -2,0 -4,0 -1,-1 -2,-1 -5,-3 -2,-1 -3,-1 -5,-1 -1,-1 -2,-1 -4,-2 -1,0 -1,0 -1,0 -1,0 -1,0 -1,1 -1,0 -1,1 -3,2 0,2 0,3 -1,3 0,0 0,0 -1,1 -2,0 -3,0 -3,0 0,0 0,-1 0,-1 0,0 0,-1 0,-4 0,-2 0,-4 1,-5z"/>
  <path id="_6" class="fil0" d="M750 118c2,-8 3,-13 7,-17 3,-5 7,-7 11,-10 2,0 5,-1 9,-1 2,0 5,1 8,1 3,1 6,1 8,3 3,1 5,3 8,5 1,2 4,5 6,7 2,4 3,8 5,13 0,3 0,4 0,5 2,2 2,4 2,7 0,1 0,5 0,9 0,2 0,7 0,14 0,6 0,10 0,14 0,4 0,7 0,10 0,3 0,5 -2,6 0,3 0,4 0,6 -2,7 -3,12 -7,17 -3,4 -7,8 -12,11 -1,0 -4,1 -5,1 -3,0 -5,0 -8,0 -2,1 -5,1 -7,0 -3,0 -4,0 -5,0 -6,-3 -8,-6 -12,-10 -3,-4 -4,-9 -6,-16 0,-2 -2,-3 -2,-5 0,-1 0,-4 0,-6 0,-3 -1,-5 -1,-10 0,-4 0,-11 0,-17 0,-6 0,-12 0,-17 0,-4 1,-7 1,-10 0,-2 0,-4 0,-6 0,-2 2,-3 2,-4l0 0zm46 0c-2,-3 -3,-5 -5,-8 -3,-2 -6,-4 -8,-5 -3,0 -5,0 -8,0 -2,0 -4,1 -5,3 -1,1 -4,3 -4,6 -1,3 -2,6 -2,10 -2,4 -2,9 -2,14 0,7 0,13 0,21 0,6 0,11 0,15 0,4 0,8 2,10 0,3 0,6 1,8 0,1 1,4 3,5 1,3 2,5 5,7 1,1 4,1 7,1 4,0 7,-1 9,-3 3,-2 5,-5 8,-9 0,-1 0,-2 0,-3 0,-2 0,-4 1,-6 0,-2 0,-5 0,-7 0,-3 2,-7 2,-12 0,-13 0,-22 0,-29 -2,-9 -3,-14 -4,-18l0 0z"/>
  <path id="_7" class="fil0" d="M873 96c1,-1 3,-4 6,-5 3,-1 5,-3 8,-3 2,0 5,0 7,0 4,0 7,0 9,0 7,0 12,2 16,3 4,1 7,4 9,6 2,2 3,5 5,9 1,3 1,7 2,11 0,5 -1,9 -1,12 -1,4 -3,8 -5,12 -1,1 -3,4 -4,6 0,2 0,2 1,3 2,1 2,2 3,4 2,2 5,5 6,9 3,2 4,6 5,11 0,5 0,9 0,14 -1,4 -1,8 -2,12 -3,6 -9,11 -18,15 -8,4 -18,5 -30,5 -2,0 -3,0 -5,0 -1,0 -2,0 -2,0 -1,0 -3,-1 -3,-1 -1,0 -1,-1 -2,-1 -2,-2 -2,-3 -3,-4 0,0 0,-1 -1,-4 0,-1 0,-4 0,-8 0,-3 0,-9 -1,-14 0,-9 0,-19 0,-29 0,-10 0,-21 0,-30 0,-9 0,-16 0,-23 0,-6 0,-10 0,-10l0 0zm46 24c0,-3 0,-7 -2,-10 0,-2 -2,-4 -3,-5 -2,0 -3,0 -6,0 -2,0 -5,0 -7,0 -3,0 -5,0 -8,0 -3,0 -4,0 -4,0 0,0 0,3 0,6 -1,3 -1,7 -1,11 0,5 0,9 1,11 0,4 0,7 0,7 1,2 1,2 3,2 1,0 5,0 9,-1 6,-1 10,-3 13,-7 2,-3 3,-7 5,-14l0 0zm1 47c-1,0 -1,-2 -3,-2 -1,-1 -3,-1 -5,-2 -1,0 -2,-2 -4,-2 -2,0 -3,-1 -5,-1 -1,0 -4,0 -5,0 -2,-1 -4,-1 -5,-1 0,0 -1,0 -2,0 0,1 0,4 0,8 0,3 0,8 0,15 0,4 0,8 0,10 0,3 0,5 0,7 0,1 0,2 0,3 0,0 1,2 1,2 0,0 1,1 1,1 1,0 1,0 3,0 0,0 1,0 2,0 1,-1 4,-1 7,-3 6,-2 11,-5 15,-7 4,-3 5,-7 5,-12 0,-1 0,-2 -1,-4 0,-1 0,-4 -1,-5 0,-1 -2,-2 -2,-5 0,-1 -1,-2 -1,-2l0 0z"/>
  <path id="_8" class="fil0" d="M953 94c0,-2 2,-3 3,-3 1,-1 2,-1 2,-1 2,0 4,-2 7,-2 2,0 5,0 9,2 2,0 6,0 9,0 2,0 5,0 6,1 5,0 9,3 12,6 3,4 6,8 6,13 0,1 0,3 0,5 0,3 0,4 -1,7 0,1 -2,4 -2,5 -1,2 -2,4 -2,5 -1,2 -3,4 -5,5 -3,3 -5,4 -8,5 -1,1 -1,1 -1,3 1,1 2,2 4,4 1,1 2,2 4,5 1,1 2,4 2,5 1,1 3,4 4,9 0,4 1,7 2,13 2,5 2,10 3,15 0,5 1,9 1,14 0,3 0,4 0,5 0,1 -1,3 -1,3 0,1 -1,1 -1,1 -2,0 -3,0 -4,0 -3,1 -4,1 -5,1 -1,0 -1,-1 -3,-2 0,-2 0,-4 -1,-7 0,-2 0,-6 -1,-11 0,-8 -2,-14 -3,-18 0,-5 -1,-9 -2,-13 -2,-4 -3,-6 -6,-9 -1,-2 -2,-5 -5,-6 -2,-3 -5,-4 -6,-5 -1,0 -3,0 -4,1 0,1 -1,4 -1,9 0,5 -2,13 -2,24 0,8 0,14 0,18 0,4 0,8 0,9 -1,3 -1,4 -2,4 0,0 -1,0 -4,0 -1,0 -2,0 -4,0 0,0 -1,0 -1,0 0,-1 -1,-1 -1,-3 0,0 0,-1 0,-4 0,0 0,-2 0,-6 0,-2 0,-8 0,-13 0,-5 0,-11 0,-18 0,-6 0,-14 0,-21 0,-13 0,-22 0,-30 0,-6 0,-11 0,-15 0,-4 0,-7 1,-7 0,-1 0,-2 1,-3l0 0zm39 16c0,-1 -2,-1 -2,-2 -1,0 -2,-2 -3,-3 -2,0 -3,0 -6,-1 -2,0 -3,0 -6,0 -3,0 -4,0 -6,0 -2,0 -3,0 -4,0 0,1 0,2 0,5 0,2 0,5 0,9 0,4 0,6 0,9 0,2 1,4 1,4 1,1 1,1 3,1 1,0 2,0 5,-1 2,0 6,-2 9,-3 2,-1 5,-2 6,-4 0,-1 0,-1 1,-2 0,-2 0,-3 2,-4 0,-1 0,-3 0,-4 0,-1 0,-3 0,-4l0 0z"/>
  <path id="_9" class="fil0" d="M1044 92c0,0 1,-1 1,-1 2,0 3,0 4,0 2,-1 4,-3 7,-3 1,0 2,0 4,2 0,1 1,4 2,7 0,5 1,11 3,16 1,6 2,11 4,16 1,7 1,11 1,13 0,3 1,7 2,12 2,5 3,10 3,16 1,5 2,11 4,16 1,5 1,9 2,14 0,4 2,7 2,10 0,3 0,4 0,5 0,1 -2,1 -3,3 -1,0 -3,0 -4,1 -1,0 -2,0 -4,0 -1,1 -2,1 -2,0 -1,0 -1,-3 -3,-6 -1,-3 -1,-8 -2,-13 0,-3 0,-5 -2,-9 0,-3 -1,-7 -1,-9 -1,-4 -1,-5 -2,-8 0,-1 0,-2 -2,-2 -1,-2 -1,-2 -2,-3 -2,0 -4,0 -7,0 -1,0 -4,0 -5,0 -1,1 -2,1 -2,1 -2,2 -2,3 -2,4 -1,1 -1,3 -1,5 -1,3 -1,7 -2,12 -2,4 -2,8 -3,10 0,6 -1,10 -3,12 0,2 -2,2 -3,2 -2,0 -2,0 -3,0 -1,0 -3,0 -3,0 -2,1 -3,0 -5,-1 0,-1 0,-4 2,-9 0,-4 1,-9 1,-14 1,-4 2,-9 2,-14 2,-4 3,-9 4,-13 2,-5 3,-9 3,-12 1,-3 2,-6 4,-10 0,-2 1,-5 1,-9 1,-4 3,-6 4,-11 0,-4 1,-8 2,-13 2,-4 2,-8 3,-12 0,-2 1,-3 1,-5l0 0zm10 46c0,-2 -1,-5 -1,-7 0,-3 0,-5 0,-7 0,-1 0,-1 -1,-2 0,0 -1,1 -1,4 -2,2 -2,5 -3,7 0,4 -1,7 -3,10 0,3 0,6 -1,7 0,1 1,2 1,2 0,0 2,0 4,0 3,0 5,2 5,0 0,0 0,0 0,-2 0,0 0,-3 0,-4 0,-3 0,-5 0,-8l0 0z"/>
  <path id="_10" class="fil0" d="M1098 111c1,-5 4,-10 6,-12 3,-4 7,-7 11,-8 2,-1 5,-3 9,-3 3,0 7,2 11,3 4,0 7,1 8,3 0,1 0,3 -1,6 -3,2 -4,5 -6,5 -1,1 -2,0 -5,0 -2,-1 -5,-1 -6,-1 -3,0 -4,1 -5,1 -2,1 -3,1 -3,3 -1,1 -2,1 -2,2 -2,1 -2,4 -3,5 0,2 0,3 0,4 0,3 1,7 5,12 3,5 7,10 12,14 1,1 2,2 4,5 2,2 3,5 6,6 3,3 4,5 5,8 1,3 3,5 4,8 0,2 1,5 1,7 0,3 0,7 0,11 0,5 0,10 -2,14 -2,2 -4,6 -7,9 -1,1 -2,1 -5,2 -1,1 -4,1 -6,3 -2,0 -4,1 -7,1 -2,1 -4,1 -6,1 -1,0 -3,0 -4,0 -1,-1 -2,-1 -5,-1 -1,-1 -3,-1 -4,-3 -1,0 -2,-1 -4,-2 0,0 -1,-1 -2,-3 -2,0 -2,-1 -3,-2 -1,-2 -1,-3 -1,-4 -1,-1 -1,-3 0,-3 0,-1 0,-1 2,-2 2,0 3,0 4,0 3,0 4,0 5,0 2,0 2,1 2,1 0,0 0,1 1,1 1,0 1,0 3,2 1,0 2,0 5,0 1,0 2,0 3,0 2,1 4,1 7,0 2,-2 4,-3 6,-4 3,-3 4,-7 4,-10 0,-6 -1,-11 -2,-16 0,0 -2,-1 -3,-4 -3,-1 -4,-3 -5,-6 -3,-3 -5,-5 -7,-6 -1,-3 -3,-4 -3,-6 -2,-1 -3,-1 -4,-2 0,-1 -1,-4 -3,-5 -1,-2 -2,-3 -4,-4 0,-1 -1,-3 -1,-4 -2,-5 -5,-9 -5,-13 -1,-2 0,-7 0,-13l0 0z"/>
  <path id="_11" class="fil0" d="M1162 115c1,-7 1,-14 1,-18 0,-3 0,-5 2,-6 0,0 1,-1 1,-1 1,-2 2,-2 5,-2 3,0 4,0 5,0 1,2 3,2 4,2 0,1 0,2 0,6 0,3 0,6 0,12 -1,5 -1,10 -1,15 0,6 -2,11 -2,18 0,1 0,4 0,6 0,3 0,7 -1,11 0,2 0,6 0,10 0,4 0,7 0,10 0,6 0,10 0,14 -1,4 -1,7 -1,9 0,3 0,4 -1,6 0,2 0,3 0,4 -2,3 -2,4 -3,5 0,2 -1,3 -1,3 -2,1 -3,1 -4,1 -3,0 -4,-1 -4,-2 -1,0 -1,-2 -1,-2 -2,-1 -2,-1 -2,-2 0,-3 0,-4 0,-8 0,-2 0,-6 0,-11 0,-4 0,-7 0,-11 0,-3 0,-6 0,-10 0,-4 0,-6 0,-10 0,-3 2,-5 2,-8 0,-2 0,-5 0,-9 0,-2 1,-6 1,-10 0,-4 0,-8 0,-11 0,-4 0,-7 0,-11l0 0z"/>
  <path id="_12" class="fil0" d="M1193 91c0,0 1,-1 2,-1 2,0 3,0 4,0 1,-2 3,-2 3,-2 1,0 2,0 2,0 2,0 2,0 3,2 0,0 1,4 1,9 0,5 0,12 1,21 0,9 0,18 0,29 0,11 0,21 0,32 0,7 0,14 0,19 0,5 0,6 0,6 2,0 3,0 6,0 2,-1 5,-1 8,-1 4,-1 7,-1 9,-3 3,0 4,0 6,0 1,2 2,2 2,3 1,1 1,2 3,4 0,2 1,4 1,5 0,1 0,1 0,1 -1,0 -3,1 -6,1 -4,2 -8,2 -13,3 -5,0 -10,0 -16,1 -3,0 -7,0 -10,0 -1,0 -4,0 -6,0 0,0 0,-7 -2,-20 0,-14 0,-28 0,-45 0,-15 0,-31 0,-44 2,-14 2,-20 2,-20l0 0z"/>
  <path id="_13" class="fil0" d="M1273 154c6,0 12,0 17,0 5,0 8,0 9,0 1,0 1,0 3,0 1,0 1,0 2,0 0,0 0,0 1,0 0,0 0,0 0,0 0,0 0,1 2,2 0,2 0,2 0,3 0,1 0,2 0,4 0,1 0,1 0,2 0,0 0,0 -2,0 0,0 -3,2 -8,2 -7,0 -13,0 -20,0 -6,0 -13,0 -18,0 -5,0 -7,0 -7,0 -2,0 -2,-2 -2,-2 0,-1 0,-2 0,-5 0,-1 0,-2 0,-2 2,-2 2,-3 3,-3 1,0 4,0 8,0 2,0 6,-1 12,-1z"/>
  <path id="_14" class="fil0" d="M1316 91c1,0 1,-1 2,-1 2,0 3,0 4,0 1,-2 3,-2 4,-2 1,0 1,0 3,0 0,0 1,0 1,2 1,0 1,4 1,9 1,5 1,12 1,21 0,9 0,18 0,29 0,11 0,21 0,32 0,7 0,14 0,19 0,5 0,6 2,6 0,0 1,0 3,0 3,-1 6,-1 9,-1 4,-1 8,-1 9,-3 3,0 6,0 7,0 1,2 1,2 2,3 0,1 2,2 2,4 1,2 1,4 1,5 1,1 0,1 0,1 0,0 -3,1 -6,1 -4,2 -8,2 -13,3 -5,0 -9,0 -14,1 -5,0 -9,0 -12,0 -1,0 -4,0 -6,0 0,0 0,-7 0,-20 0,-14 0,-28 0,-45 0,-15 0,-31 0,-44 0,-14 0,-20 0,-20l0 0z"/>
  <path id="_15" class="fil0" d="M1385 65c2,0 4,-2 6,-4 2,-2 3,-3 4,-6 3,-1 4,-2 5,-4 2,-1 2,-1 3,-1 0,0 1,0 2,1 0,0 2,2 3,2 0,1 1,2 2,3 0,0 0,2 0,2 0,1 0,1 -1,3 -1,2 -2,3 -4,4 -2,2 -3,3 -6,5 -3,3 -5,4 -5,6 -3,2 -5,3 -7,3 -2,0 -3,-1 -5,-2 -1,0 -1,-3 -1,-4 0,-1 1,-4 4,-8l0 0zm-7 50c0,-5 0,-9 0,-11 0,-4 2,-7 2,-8 0,-2 0,-4 0,-4 1,-1 1,-1 1,-2 1,0 3,0 4,0 1,0 2,0 4,0 1,0 2,0 4,0 1,0 1,1 1,1 1,1 1,3 1,8 0,3 0,10 0,20 0,4 0,8 0,12 -1,3 -1,6 -1,9 0,2 0,5 0,6 0,3 0,3 0,4 0,0 0,1 -1,4 0,1 0,4 0,6 0,3 0,7 0,9 0,4 0,8 0,12 -2,6 -2,12 -2,18 0,3 -1,7 -1,10 -1,4 -1,5 -3,6 0,1 -1,3 -2,3 -1,1 -3,2 -5,1 -3,0 -4,-1 -4,-3 0,-1 -1,-3 -1,-9 0,-5 0,-10 0,-17 0,-7 0,-15 1,-21 0,-8 0,-13 1,-17 0,-2 0,-5 0,-7 0,-3 0,-7 0,-9 0,-4 0,-8 1,-10 0,-4 0,-8 0,-11l0 0z"/>
  <path id="_16" class="fil0" d="M1414 96c2,-1 4,-4 7,-5 2,-1 5,-3 7,-3 3,0 4,0 8,0 4,0 7,0 9,0 6,0 12,2 15,3 4,1 8,4 9,6 3,2 4,5 6,9 1,3 1,7 1,11 1,5 0,9 -1,12 0,4 -2,8 -4,12 -2,1 -3,4 -4,6 0,2 0,2 1,3 1,1 1,2 3,4 2,2 5,5 6,9 3,2 4,6 5,11 0,5 0,9 0,14 -1,4 -1,8 -2,12 -4,6 -9,11 -18,15 -9,4 -18,5 -30,5 -2,0 -4,0 -5,0 -1,0 -2,0 -4,0 0,0 -1,-1 -1,-1 -1,0 -1,-1 -3,-1 -1,-2 -1,-3 -2,-4 0,0 0,-1 -1,-4 0,-1 0,-4 0,-8 0,-3 0,-9 -2,-14 0,-9 0,-19 0,-29 0,-10 0,-21 0,-30 0,-9 0,-16 0,-23 0,-6 0,-10 0,-10l0 0zm46 24c0,-3 0,-7 -1,-10 0,-2 -2,-4 -4,-5 -1,0 -2,0 -5,0 -2,0 -5,0 -7,0 -4,0 -6,0 -8,0 -3,0 -4,0 -4,0 0,0 0,3 -1,6 0,3 0,7 0,11 0,5 0,9 0,11 1,4 1,7 1,7 0,2 1,2 3,2 1,0 3,0 9,-1 6,-1 10,-3 12,-7 3,-3 4,-7 5,-14l0 0zm2 47c-2,0 -2,-2 -3,-2 -1,-1 -4,-1 -5,-2 -1,0 -3,-2 -5,-2 -1,0 -3,-1 -4,-1 -1,0 -4,0 -5,0 -3,-1 -4,-1 -5,-1 0,0 -1,0 -3,0 0,1 0,4 0,8 0,3 0,8 0,15 0,4 0,8 0,10 0,3 0,5 0,7 0,1 0,2 0,3 0,0 0,2 2,2 0,0 1,1 1,1 1,0 1,0 2,0 0,0 2,0 3,0 1,-1 4,-1 6,-3 7,-2 12,-5 16,-7 4,-3 5,-7 5,-12 0,-1 0,-2 -1,-4 0,-1 0,-4 -2,-5 0,-1 -1,-2 -1,-5 -1,-1 -1,-2 -1,-2l0 0z"/>
  <path id="_17" class="fil0" d="M1521 92c0,0 0,-1 1,-1 0,0 1,0 2,0 3,-1 4,-3 7,-3 2,0 4,0 4,2 0,1 1,4 2,7 2,5 3,11 4,16 1,6 1,11 3,16 1,7 2,11 2,13 0,3 0,7 2,12 1,5 2,10 3,16 2,5 3,11 3,16 1,5 3,9 3,14 1,4 1,7 1,10 1,3 1,4 0,5 0,1 0,1 -1,3 -2,0 -3,0 -6,1 -1,0 -2,0 -3,0 -2,1 -3,1 -3,0 0,0 -1,-3 -3,-6 0,-3 -1,-8 -1,-13 0,-3 0,-5 -1,-9 -1,-3 -1,-7 -3,-9 0,-4 -1,-5 -1,-8 -1,-1 -1,-2 -3,-2 0,-2 -1,-2 -2,-3 -1,0 -3,0 -5,0 -3,0 -4,0 -5,0 -2,1 -3,1 -4,1 0,2 -1,3 -1,4 0,1 -2,3 -2,5 0,3 -1,7 -2,12 0,4 -2,8 -2,10 -1,6 -2,10 -2,12 -1,2 -3,2 -5,2 0,0 -2,0 -3,0 -1,0 -1,0 -2,0 -3,1 -4,0 -6,-1 0,-1 0,-4 2,-9 0,-4 1,-9 2,-14 0,-4 2,-9 3,-14 1,-4 1,-9 2,-13 2,-5 3,-9 4,-12 2,-3 2,-6 3,-10 1,-2 1,-5 2,-9 0,-4 2,-6 3,-11 1,-4 3,-8 4,-13 0,-4 1,-8 1,-12 1,-2 1,-3 3,-5l0 0zm9 46c0,-2 0,-5 0,-7 -2,-3 -2,-5 -2,-7 0,-1 0,-1 -1,-2 0,0 0,1 -1,4 0,2 -2,5 -2,7 -1,4 -2,7 -2,10 -1,3 -1,6 -1,7 0,1 0,2 0,2 1,0 2,0 5,0 2,0 4,2 4,0 1,0 1,0 1,-2 0,0 0,-3 -1,-4 0,-3 0,-5 0,-8l0 0z"/>
  <path id="_18" class="fil0" d="M1627 133c0,-7 0,-15 0,-20 0,-5 0,-9 0,-13 0,-4 0,-6 0,-8 0,-1 1,-2 1,-2 0,-2 0,-2 2,-2 1,0 3,0 5,0 2,0 3,0 5,0 1,0 1,0 1,2 0,0 1,4 1,7 2,5 2,11 2,18 0,3 0,8 0,12 0,5 0,10 0,15 0,5 0,12 0,17 0,6 0,11 1,16 0,26 0,39 0,39 -1,1 -3,2 -4,2 -1,2 -3,2 -4,3 -1,0 -2,0 -4,0 -1,0 -2,0 -3,0 0,-1 -2,-1 -3,-4 -1,-2 -3,-5 -4,-8 -1,-2 -4,-6 -5,-10 -1,-5 -4,-9 -5,-14 -1,-2 -3,-6 -4,-10 -3,-4 -4,-7 -5,-8 -1,-2 -4,-6 -5,-9 -3,-4 -4,-6 -7,-10 -2,-3 -3,-5 -5,-8 -2,-2 -2,-4 -2,-4 -2,0 -3,0 -3,3 0,1 0,4 1,10 0,8 0,16 0,23 2,8 2,14 2,20 0,6 0,10 0,14 0,3 0,5 0,6 -2,0 -3,0 -3,0 -1,1 -2,1 -5,1 -1,0 -3,0 -4,-1 -1,0 -1,0 -2,0 0,-1 -2,-8 -2,-19 -1,-12 -1,-25 -1,-37 0,-14 0,-27 1,-37 0,-12 2,-18 2,-20 1,0 1,-1 2,-1 1,0 3,-1 4,-1 3,0 5,0 8,1 1,1 2,3 2,6 2,3 2,6 3,8 1,3 1,5 4,8 1,2 2,5 5,9 1,2 5,7 7,11 2,3 4,7 6,9 2,3 3,7 5,9 2,3 4,5 5,9 1,3 2,4 2,7 2,1 2,2 3,3 0,0 0,-1 0,-3 1,-3 1,-6 1,-9 0,-4 0,-8 -1,-13 0,-5 0,-12 0,-17l0 0z"/>
  <path id="_19" class="fil0" d="M1658 118c2,-8 4,-13 7,-17 3,-5 7,-7 11,-10 2,0 5,-1 9,-1 2,0 5,1 9,1 2,1 5,1 7,3 3,1 5,3 8,5 1,2 4,5 6,7 2,4 3,8 5,13 0,3 0,4 0,5 2,2 2,4 2,7 0,1 0,5 0,9 0,2 0,7 0,14 0,6 0,10 0,14 0,4 0,7 0,10 0,3 0,5 -2,6 0,3 0,4 0,6 -2,7 -3,12 -7,17 -3,4 -7,8 -12,11 -1,0 -4,1 -5,1 -2,0 -5,0 -8,0 -2,1 -5,1 -7,0 -3,0 -4,0 -5,0 -6,-3 -8,-6 -12,-10 -2,-4 -4,-9 -6,-16 0,-2 -2,-3 -2,-5 0,-1 0,-4 0,-6 0,-3 0,-5 0,-10 0,-4 0,-11 0,-17 0,-6 0,-12 0,-17 0,-4 0,-7 0,-10 0,-2 0,-4 0,-6 0,-2 2,-3 2,-4l0 0zm46 0c-1,-3 -3,-5 -5,-8 -3,-2 -5,-4 -8,-5 -3,0 -5,0 -8,0 -2,0 -4,1 -5,3 -1,1 -2,3 -4,6 -1,3 -2,6 -2,10 -2,4 -2,9 -2,14 0,7 0,13 0,21 0,6 0,11 0,15 0,4 0,8 2,10 0,3 0,6 1,8 0,1 1,4 3,5 1,3 2,5 5,7 1,1 4,1 7,1 4,0 7,-1 9,-3 3,-2 6,-5 8,-9 0,-1 0,-2 0,-3 0,-2 0,-4 1,-6 0,-2 0,-5 0,-7 0,-3 2,-7 2,-12 0,-13 0,-22 0,-29 -2,-9 -3,-14 -4,-18l0 0z"/>
  <g id="_2430371646032">
   <path class="fil1 str0" d="M240 104c0,-34 -28,-62 -62,-62 -23,0 -42,12 -52,30 -12,-18 -31,-30 -53,-30 -33,0 -61,28 -61,62 0,19 8,36 22,47l85 87c3,3 4,3 7,3 1,0 4,0 5,-3l87 -87c13,-11 22,-28 22,-47l0 0z"/>
   <path class="fil2" d="M114 104l0 1c-1,1 -1,1 -3,1 0,-5 0,0 -2,-2 0,0 -1,0 0,-3 2,0 2,1 5,3l0 0zm5 2c0,-1 0,0 0,-1l0 -5c3,0 3,0 6,0 -2,1 -2,1 -2,2 -2,6 -1,3 -4,4l0 0zm-21 -7c6,0 5,2 5,7 -1,2 -1,0 -3,2 -1,-2 -2,-7 -2,-9l0 0zm64 1l0 -1c1,0 1,0 1,0l4 -4c2,-1 4,-1 6,0 0,2 0,2 -1,4 -1,2 -1,2 -3,2 -3,3 -1,0 -7,-1l0 0zm-16 -3c0,-3 0,-2 3,-5 4,-2 11,-2 9,2 0,1 -3,2 -3,2 -4,3 -4,1 -9,1l0 0zm-64 -7c-1,-3 -1,-3 -4,-3 3,-6 -1,-5 7,-5 2,0 6,-1 10,0 -1,4 -2,4 -5,5 -4,1 -5,1 -8,3zm49 -13c3,1 3,1 3,5l-3 0 0 -5zm-8 0c0,-3 0,-1 2,-4l1 0c0,0 6,10 0,6 -1,0 -3,-1 -3,-2l0 0zm-19 -4c8,0 1,1 7,1 -2,2 -2,3 -4,3 0,-3 0,-1 -3,-4zm13 3c-1,-3 -1,-3 -1,-6 2,0 1,0 2,-1 1,5 0,5 -1,7l0 0zm36 -6c0,-1 0,0 -2,-1l0 -2c3,-2 2,0 3,-2 1,0 1,0 4,2 -1,3 -1,3 -5,3zm-7 -17c2,5 2,1 0,6 -6,1 -1,0 -9,-1 0,-4 0,-5 6,-5 1,0 2,0 3,0zm-65 2l1 0c0,0 -1,0 -1,0zm51 -5c2,1 2,0 3,4 -4,0 -5,2 -7,0 0,-1 3,-4 4,-4zm-14 4c1,-3 1,-1 1,-4l7 0 0 3c-3,0 -4,1 -8,1zm-22 6l0 1c-12,2 -2,2 -10,-2 0,-1 0,-6 7,-3l3 3c0,-4 0,-3 0,-5 3,0 2,0 6,0l0 -3 2 0c0,4 0,4 -2,7 -2,1 -3,2 -6,2l0 0zm-5 -15l2 0c-2,0 -2,0 -2,0zm13 2l-2 0c0,-6 -3,-3 1,-3l0 -4c2,1 0,1 4,2 1,-2 0,-4 5,-4 0,3 0,2 -1,4 -2,4 -6,3 -7,5l0 0zm-2 -9l0 0c0,0 0,0 0,0zm12 2c0,-2 0,-2 2,-3 0,-1 1,-2 1,-2 1,0 6,0 6,-2 0,4 0,3 2,5 -4,2 -7,3 -11,2l0 0zm22 -7c7,0 4,0 5,0l0 4c-5,0 -1,4 -5,1 -1,0 0,-1 0,-5l0 0zm-9 0c4,0 1,0 5,0 0,5 -1,4 -5,3l0 -3zm-25 3c0,0 0,0 0,1l-4 3c-2,0 0,0 -2,0l-2 0c-3,1 -4,1 -7,5 -1,4 -2,4 -5,5l-4 3 0 1c4,0 0,0 2,1 -4,0 -3,1 -3,-2 -2,0 -2,1 -4,2l-1 1c0,2 0,0 0,3 6,2 3,-3 9,0l3 1c2,3 1,4 1,8 -4,0 -4,4 -7,5l-6 4c-2,0 -2,0 -5,1l-8 8c-1,1 3,0 -1,1l0 3c3,1 0,0 1,0 4,2 8,0 11,-3l1 -1c1,0 1,0 2,-1 7,5 5,6 2,10 -4,4 -2,2 -8,4 -3,1 -4,2 -5,6 0,0 -1,-1 -1,-1 -3,0 -3,1 -3,2 -3,3 -5,7 -9,7 0,4 1,1 1,4 4,0 7,0 9,-2l14 -6c5,-3 7,0 12,0l0 1c-4,1 -1,0 -3,1 -4,2 -6,4 -10,7 -2,0 -2,-1 -2,2 -3,-1 -4,0 -7,2l-8 1c-1,1 -1,0 -2,4 8,1 4,1 15,0l10 -4c3,-1 2,1 2,-3 4,2 6,0 9,-1 2,-1 1,1 2,-2 5,0 9,1 12,5 1,4 0,9 -3,11l-4 8c-1,2 0,1 -1,2 0,0 0,0 -1,0l-7 6c-1,1 -2,0 -2,3 2,0 6,0 9,-1l10 -8c4,-2 9,0 13,0 2,0 2,0 6,0 0,4 3,6 5,8 3,1 0,3 7,3 -1,-4 -3,-5 4,-5 5,1 2,0 7,1l3 2c2,2 4,4 6,6l2 0c0,0 0,0 2,0l0 -2c-2,-1 -2,-2 -5,-4l-3 -2c-2,-3 -7,-7 -8,-10 -2,-2 0,-4 -2,-7 0,-4 -1,-5 -1,-10 1,-5 3,-8 4,-9 2,0 1,0 2,0l2 1c2,2 6,0 6,4 12,0 28,-2 36,7 2,1 5,2 6,2 3,1 2,0 3,1l1 0c1,-3 0,-1 3,-1 -2,-4 -2,-1 -3,-2 0,-2 0,-2 0,-2l-2 -2c-3,-3 -7,-5 -11,-7l-15 -11c4,-2 1,-2 4,-3 5,-2 4,1 13,1 0,-2 0,-1 1,-3l-5 -5c-1,0 -1,0 -3,-2l-2 -2c0,-2 0,-2 -2,-2 0,0 0,0 0,0l-1 -1c-4,-1 -6,-2 -11,-2 1,-4 0,0 1,-2 0,-1 0,-1 1,-2 9,0 10,0 19,-2 0,-3 -1,-2 -3,-3l-6 -2c-1,0 -1,0 -1,0l-6 -2c-4,-2 -4,0 -7,-3 5,-2 13,0 18,0 0,-4 0,-2 -1,-4l-26 -18c-4,-2 -7,-3 -7,-7 10,-2 6,2 12,2 0,-4 2,-2 2,-5 -4,0 -8,-4 -9,-6 2,0 5,0 7,-2 -1,-1 -1,-2 -2,-3 -1,0 -4,0 -5,-2l-3 -2c-9,-5 -13,-4 -19,-8 0,0 0,0 0,0l-3 -1c-1,-1 0,0 -1,-1l-4 -8c0,0 0,0 -1,0 0,-3 0,-1 1,-4l-4 0c0,5 0,4 -2,6l-4 4c0,0 0,0 0,0 -2,2 -4,3 -5,5 0,0 -1,0 -1,0l0 2c0,0 -2,0 -2,0 0,1 -1,1 -1,3 3,2 3,0 5,0l0 2c-2,1 -1,1 -2,2 0,0 0,0 -2,0 0,0 0,0 0,0 0,0 -1,2 -1,2l0 3c1,3 1,2 3,3l-5 4 0 0z"/>
   <path class="fil3" d="M35 151c2,-4 -1,-6 -5,-14 -1,-3 -4,-9 -5,-10 -2,4 -4,4 -4,6 0,5 5,9 9,13 1,3 1,4 5,5l0 0zm50 49l-1 16c-2,11 -3,30 -3,40l-38 0c-4,0 -2,-5 0,-10l9 -37c0,-9 -16,-22 -22,-27 -10,-9 -17,-9 -19,-15 -2,-2 -4,-6 -4,-8 0,-4 0,-8 0,-12 -2,-2 -3,-6 -4,-9 -1,-5 -4,-14 -3,-20 2,-5 5,-16 5,-18 0,-8 -3,-28 8,-21 1,2 0,2 1,2 4,2 4,1 6,5 3,5 0,4 3,9 2,1 2,0 2,4 1,7 1,3 6,6 5,4 6,10 9,15 13,26 22,22 33,41 7,11 12,23 12,39z"/>
   <g>
    <g>
     <path class="fil2" d="M35 151c2,-4 -1,-6 -5,-14 -1,-3 -4,-9 -5,-10 -2,4 -4,4 -4,6 0,5 5,9 9,13 1,3 1,4 5,5l0 0zm50 49l-1 16c-2,11 -3,30 -3,40l-38 0c-4,0 -2,-5 0,-10l9 -37c0,-9 -16,-22 -22,-27 -10,-9 -17,-9 -19,-15 -2,-2 -4,-6 -4,-8 0,-4 0,-8 0,-12 -2,-2 -3,-6 -4,-9 -1,-5 -4,-14 -3,-20 2,-5 5,-16 5,-18 0,-8 -3,-28 8,-21 1,2 0,2 1,2 4,2 4,1 6,5 3,5 0,4 3,9 2,1 2,0 2,4 1,7 1,3 6,6 5,4 6,10 9,15 13,26 22,22 33,41 7,11 12,23 12,39z"/>
     <path class="fil4" d="M35 151c2,-4 -1,-6 -5,-14 -1,-3 -4,-9 -5,-10 -2,4 -4,4 -4,6 0,5 5,9 9,13 1,3 1,4 5,5l0 0zm11 46l34 -24c-2,-4 -4,-8 -7,-12 -11,-19 -20,-15 -33,-41 -1,-1 -1,-2 -2,-4l-34 24c1,2 2,5 3,7 0,4 0,8 0,12 0,2 2,6 4,8 2,6 9,6 19,15 4,3 10,9 16,15z"/>
     <path class="fil5" d="M41 128c1,0 2,0 3,0 9,14 16,16 24,26 0,1 0,2 0,4 0,15 -13,28 -27,28 -3,0 -5,-1 -8,-2 -1,-1 -2,-1 -3,-2 -5,-4 -8,-6 -11,-8 -4,-5 -6,-10 -6,-16 0,-9 3,-16 9,-22 1,4 5,7 8,10 1,3 1,4 5,5l0 0c2,-4 -1,-6 -5,-14 -1,-1 -2,-3 -3,-5 5,-3 9,-4 14,-4z"/>
    </g>
    <g>
     <g>
      <path class="fil6" d="M40 147c11,0 21,4 28,10 0,0 0,0 0,1 0,2 0,4 -1,6 -6,-5 -16,-9 -27,-9 -10,0 -19,3 -26,8 -1,-1 -1,-3 -1,-5 0,-1 0,-1 0,-2 5,-4 11,-6 18,-8 1,1 1,2 4,3l0 0c0,-1 1,-1 1,-2l0 0c0,-1 0,-1 0,-1 1,-1 3,-1 4,-1z"/>
      <path id="_1_0" class="fil7 str1" d="M40 147c11,0 21,4 28,10m-1 7c-6,-5 -16,-9 -27,-9 -10,0 -19,3 -26,8m-1 -7c5,-4 11,-6 18,-8m5 0c1,-1 3,-1 4,-1"/>
     </g>
    </g>
   </g>
   <path class="fil7" d="M35 151c2,-4 -1,-6 -5,-14 -1,-3 -4,-9 -5,-10 -2,4 -4,4 -4,6 0,5 5,9 9,13 1,3 1,4 5,5l0 0zm50 49l-1 16c-2,11 -3,30 -3,40l-38 0c-4,0 -2,-5 0,-10l9 -37c0,-9 -16,-22 -22,-27 -10,-9 -17,-9 -19,-15 -2,-2 -4,-6 -4,-8 0,-4 0,-8 0,-12 -2,-2 -3,-6 -4,-9 -1,-5 -4,-14 -3,-20 2,-5 5,-16 5,-18 0,-8 -3,-28 8,-21 1,2 0,2 1,2 4,2 4,1 6,5 3,5 0,4 3,9 2,1 2,0 2,4 1,7 1,3 6,6 5,4 6,10 9,15 13,26 22,22 33,41 7,11 12,23 12,39z"/>
   <path class="fil3" d="M222 151c-3,-4 1,-6 4,-14 1,-3 4,-9 6,-10 1,4 4,4 4,6 0,5 -5,9 -9,13 -1,3 -3,4 -5,5l0 0zm-50 49l1 16c2,11 3,30 3,40l38 0c4,0 2,-5 0,-10l-9 -37c0,-9 16,-22 21,-27 11,-9 16,-9 20,-15 2,-2 3,-6 4,-8 0,-4 0,-8 0,-12 0,-2 3,-6 3,-9 1,-5 4,-14 2,-20 0,-5 -4,-16 -4,-18 0,-8 3,-28 -7,-21 -2,2 -2,2 -2,2 -3,2 -3,1 -6,5 -3,5 1,4 -3,9 -1,1 -1,0 -2,4 -1,7 0,3 -5,6 -5,4 -7,10 -9,15 -13,26 -22,22 -35,41 -5,11 -10,23 -10,39l0 0z"/>
   <g>
    <g>
     <path class="fil2" d="M222 151c-3,-4 1,-6 4,-14 1,-3 4,-9 6,-10 1,4 4,4 4,6 0,5 -5,9 -9,13 -1,3 -3,4 -5,5l0 0zm-50 49l1 16c2,11 3,30 3,40l38 0c4,0 2,-5 0,-10l-9 -37c0,-9 16,-22 21,-27 11,-9 16,-9 20,-15 2,-2 3,-6 4,-8 0,-4 0,-8 0,-12 0,-2 3,-6 3,-9 1,-5 4,-14 2,-20 0,-5 -4,-16 -4,-18 0,-8 3,-28 -7,-21 -2,2 -2,2 -2,2 -3,2 -3,1 -6,5 -3,5 1,4 -3,9 -1,1 -1,0 -2,4 -1,7 0,3 -5,6 -5,4 -7,10 -9,15 -13,26 -22,22 -35,41 -5,11 -10,23 -10,39l0 0z"/>
     <path class="fil4" d="M222 151c-3,-4 1,-6 4,-14 1,-3 4,-9 6,-10 1,4 4,4 4,6 0,5 -5,9 -9,13 -1,3 -3,4 -5,5l0 0zm-40 12l36 26c3,-3 6,-5 8,-7 11,-9 16,-9 20,-15 2,-2 3,-6 4,-8 0,-4 0,-8 0,-12 0,-2 3,-6 3,-9 0,-2 1,-6 2,-10l-20 -15 -23 16c-10,16 -19,16 -30,32l0 2z"/>
     <path class="fil5" d="M233 128c8,0 15,3 20,9l0 1c0,3 -3,7 -3,9 0,4 0,8 0,12 -1,2 -2,6 -4,8 -4,6 -9,6 -20,15 -1,0 -1,1 -2,2 -10,-5 -17,-15 -17,-28 0,-14 11,-26 24,-28 -2,3 -4,7 -5,9 -3,8 -7,10 -4,14l0 0c2,-1 4,-2 5,-5 4,-4 9,-8 9,-13 0,-2 -2,-2 -3,-5l0 0z"/>
    </g>
   </g>
   <path class="fil7" d="M222 151c-3,-4 1,-6 4,-14 1,-3 4,-9 6,-10 1,4 4,4 4,6 0,5 -5,9 -9,13 -1,3 -3,4 -5,5l0 0zm-50 49l1 16c2,11 3,30 3,40l38 0c4,0 2,-5 0,-10l-9 -37c0,-9 16,-22 21,-27 11,-9 16,-9 20,-15 2,-2 3,-6 4,-8 0,-4 0,-8 0,-12 0,-2 3,-6 3,-9 1,-5 4,-14 2,-20 0,-5 -4,-16 -4,-18 0,-8 3,-28 -7,-21 -2,2 -2,2 -2,2 -3,2 -3,1 -6,5 -3,5 1,4 -3,9 -1,1 -1,0 -2,4 -1,7 0,3 -5,6 -5,4 -7,10 -9,15 -13,26 -22,22 -35,41 -5,11 -10,23 -10,39l0 0z"/>
  </g>
 </g>
</svg>
